<svg width="200" height="65" viewBox="0 0 200 65" fill="none" xmlns="http://www.w3.org/2000/svg">
<g clip-path="url(#clip0_325_919)">
<g clip-path="url(#clip1_325_919)">
<g clip-path="url(#clip2_325_919)">
<g clip-path="url(#clip3_325_919)">
<g clip-path="url(#clip4_325_919)">
<g clip-path="url(#clip5_325_919)">
<path d="M79.9107 37.5559C78.7359 37.5559 77.8316 37.3072 77.198 36.8098C76.5644 36.3124 76.2476 35.6775 76.2476 34.9052C76.2476 34.3947 76.3598 33.8907 76.5842 33.3933C76.6766 33.1577 76.7954 32.9417 76.9406 32.7454C77.4818 32.6145 78.0693 32.4967 78.7029 32.392C80.1286 32.1563 81.3892 32.0124 82.4849 31.96V31.371C82.4849 29.918 82.3067 28.9166 81.9503 28.3669C81.5938 27.8171 81.046 27.5422 80.3068 27.5422C80.0296 27.5422 79.7919 27.5749 79.5939 27.6404L79.3167 27.7385V30.6837L79.0593 30.7426C78.8481 30.7688 78.6699 30.7819 78.5247 30.7819C78.0759 30.7819 77.7168 30.6471 77.4475 30.3774C77.1756 30.1104 77.0396 29.7544 77.0396 29.3093C77.0396 28.7072 77.3472 28.1967 77.9623 27.7778C78.5748 27.3589 79.4883 27.1495 80.7028 27.1495C81.7324 27.1495 82.6208 27.3288 83.368 27.6875C84.1125 28.0488 84.6802 28.5462 85.0709 29.1797C85.459 29.8159 85.653 30.5463 85.653 31.371V36.6723L86.8411 36.9668V37.2614H85.059C84.267 37.2614 83.6531 37.0192 83.2175 36.5349C83.0327 36.3385 82.8875 36.0898 82.7819 35.7888C82.5971 36.116 82.3793 36.4105 82.1285 36.6723C81.5344 37.2614 80.7952 37.5559 79.9107 37.5559ZM80.7028 36.8687C81.1912 36.8687 81.6334 36.6069 82.0295 36.0833C82.1747 35.8869 82.3265 35.6251 82.4849 35.2979V32.4509C81.8776 32.4509 81.2968 32.4836 80.7424 32.549C80.3332 32.6014 80.056 32.6341 79.9107 32.6472C79.8447 32.7912 79.7787 32.9875 79.7127 33.2363C79.5807 33.7337 79.5147 34.2245 79.5147 34.7089C79.5147 35.4419 79.6269 35.9851 79.8513 36.3385C80.0758 36.692 80.3596 36.8687 80.7028 36.8687ZM92.6824 37.5559C91.864 37.5559 91.1313 37.3792 90.4845 37.0257C90.1677 36.8556 89.9103 36.6723 89.7122 36.476C89.501 36.7639 89.27 36.9865 89.0192 37.1436C88.9004 37.2221 88.7684 37.2941 88.6232 37.3595H88.1282V34.0216H88.9202C89.0918 34.5714 89.3426 35.0819 89.6726 35.5531C90.3723 36.5611 91.2435 37.065 92.2864 37.065C92.8408 37.065 93.2593 36.9302 93.5418 36.6605C93.8269 36.3935 93.9695 36.0047 93.9695 35.4942C93.9695 35.0623 93.7741 34.6984 93.3834 34.4026C92.9953 34.1093 92.3854 33.7468 91.5537 33.3148C90.8409 32.9614 90.2627 32.6433 89.8192 32.3605C89.3783 32.0804 89.0021 31.727 88.6905 31.3003C88.3816 30.8762 88.2272 30.3761 88.2272 29.8002C88.2272 29.0148 88.5664 28.376 89.2449 27.8838C89.9261 27.3943 90.9729 27.1495 92.3854 27.1495C93.085 27.1495 93.7319 27.3328 94.3259 27.6993C94.6163 27.8694 94.8671 28.0462 95.0783 28.2294C95.2499 27.9938 95.4809 27.7713 95.7714 27.5618C95.9958 27.4309 96.1278 27.3589 96.1674 27.3459H96.6624V30.6837H95.8704C95.6724 30.1209 95.4281 29.6169 95.1377 29.1719C94.4777 28.1509 93.6923 27.6404 92.7814 27.6404C92.425 27.6404 92.1214 27.7713 91.8706 28.0331C91.6197 28.2949 91.4943 28.6221 91.4943 29.0148C91.4943 29.5122 91.7056 29.9285 92.128 30.2636C92.5504 30.596 93.1906 30.9783 94.0487 31.4102C94.7483 31.7637 95.3054 32.0739 95.7199 32.3409C96.137 32.6106 96.4934 32.9417 96.7891 33.3344C97.0875 33.7271 97.2366 34.1853 97.2366 34.7089C97.2366 36.6069 95.7186 37.5559 92.6824 37.5559ZM103.87 37.5559C102.999 37.5559 102.242 37.3988 101.601 37.0846C100.959 36.7705 100.468 36.3385 100.128 35.7888C99.7844 35.239 99.6128 34.6172 99.6128 33.9235V27.9349H98.2267V27.444H99.6128V26.4623C99.6128 25.2842 100.207 24.6952 101.395 24.6952H102.781V27.444H105.553V27.9349H102.781V33.9235C102.781 35.1277 102.906 35.9524 103.157 36.3974C103.408 36.8425 103.778 37.065 104.266 37.065C104.741 37.065 105.157 36.8359 105.513 36.3778C105.87 35.9197 106.048 35.2979 106.048 34.5125H106.543C106.543 35.4811 106.299 36.2299 105.81 36.7587C105.322 37.2902 104.675 37.5559 103.87 37.5559ZM107.628 37.2614V36.9668L108.816 36.6723V28.0331L107.628 27.7385V27.444H109.41C110.189 27.444 110.803 27.6927 111.252 28.1901C111.423 28.3865 111.569 28.6286 111.687 28.9166C111.885 28.6286 112.13 28.3669 112.42 28.1312C113.08 27.6076 113.819 27.3459 114.638 27.3459C115.337 27.3459 115.863 27.5055 116.214 27.8249C116.562 28.1469 116.737 28.609 116.737 29.2111C116.737 29.6562 116.602 30.0122 116.333 30.2793C116.061 30.5489 115.7 30.6837 115.252 30.6837C115.067 30.6837 114.882 30.6707 114.697 30.6445L114.46 30.5856V27.8367C113.786 27.8367 113.172 28.0985 112.618 28.6221C112.354 28.8839 112.143 29.1457 111.984 29.4075V36.6723L113.172 36.9668V37.2614H107.628ZM122.875 37.5559C121.238 37.5559 119.955 37.0938 119.026 36.1697C118.094 35.2482 117.628 33.9758 117.628 32.3527C117.628 30.7296 118.094 29.4559 119.026 28.5318C119.955 27.6103 121.238 27.1495 122.875 27.1495C124.512 27.1495 125.796 27.6103 126.728 28.5318C127.658 29.4559 128.122 30.7296 128.122 32.3527C128.122 33.9758 127.658 35.2482 126.728 36.1697C125.796 37.0938 124.512 37.5559 122.875 37.5559ZM122.875 37.1632C123.403 37.1632 123.849 36.7967 124.214 36.0636C124.575 35.3306 124.756 34.0936 124.756 32.3527C124.756 30.6118 124.575 29.3748 124.214 28.6417C123.849 27.9087 123.403 27.5422 122.875 27.5422C122.347 27.5422 121.902 27.9087 121.54 28.6417C121.176 29.3748 120.994 30.6118 120.994 32.3527C120.994 34.0936 121.176 35.3306 121.54 36.0636C121.902 36.7967 122.347 37.1632 122.875 37.1632ZM134.36 41.4828C133.185 41.4828 132.228 41.3781 131.488 41.1687C130.749 40.9592 130.217 40.6909 129.892 40.3636C129.57 40.0364 129.409 39.6895 129.409 39.323C129.409 38.8779 129.544 38.5219 129.813 38.2549C130.085 37.9852 130.446 37.8504 130.894 37.8504C131 37.8504 131.191 37.87 131.469 37.9093L131.686 37.9486V40.6974C131.845 40.7498 132.096 40.8152 132.439 40.8938C133.046 41.0247 133.62 41.0901 134.162 41.0901C135.772 41.0901 136.95 40.865 137.694 40.4147C138.441 39.9618 138.815 39.4015 138.815 38.734C138.815 37.8831 138.023 37.4577 136.439 37.4577H132.676C131.686 37.4577 130.927 37.2548 130.399 36.849C129.871 36.4432 129.607 35.9262 129.607 35.2979C129.607 34.6696 129.918 34.1133 130.538 33.6289C130.789 33.4457 131.106 33.2821 131.488 33.1381C131 32.837 130.646 32.4797 130.427 32.066C130.211 31.655 130.102 31.1615 130.102 30.5856C130.102 29.6169 130.472 28.8342 131.211 28.2373C131.95 27.643 133.033 27.3459 134.459 27.3459C135.079 27.3459 135.649 27.4074 136.169 27.5304C136.692 27.6561 137.112 27.8236 137.429 28.0331C137.534 27.8105 137.673 27.6142 137.845 27.444C138.241 27.0513 138.729 26.855 139.31 26.855C139.759 26.855 140.135 27.0081 140.438 27.3144C140.742 27.6234 140.894 28.0265 140.894 28.5239C140.894 28.9035 140.791 29.2111 140.585 29.4468C140.382 29.6824 140.122 29.8002 139.805 29.8002C139.66 29.8002 139.495 29.7871 139.31 29.7609L139.112 29.702V27.3459C138.769 27.3459 138.445 27.5095 138.142 27.8367C138.023 27.9545 137.917 28.1181 137.825 28.3276C138.485 28.9035 138.815 29.6562 138.815 30.5856C138.815 31.5542 138.445 32.3357 137.706 32.93C136.967 33.5268 135.884 33.8253 134.459 33.8253C133.508 33.8253 132.65 33.6617 131.884 33.3344L131.488 33.5308C131.356 33.6093 131.257 33.6839 131.191 33.7546C131.125 33.8279 131.092 33.9169 131.092 34.0216C131.092 34.2442 131.207 34.4143 131.437 34.5321C131.669 34.6499 132.082 34.7089 132.676 34.7089H136.439C137.429 34.7089 138.204 34.9929 138.763 35.561C139.326 36.1317 139.607 36.9276 139.607 37.9486C139.607 38.9958 139.167 39.8466 138.288 40.5011C137.412 41.1556 136.102 41.4828 134.36 41.4828ZM134.459 33.4326C134.894 33.4326 135.233 33.2232 135.476 32.8043C135.722 32.3854 135.845 31.6458 135.845 30.5856C135.845 29.5253 135.722 28.7857 135.476 28.3669C135.233 27.948 134.894 27.7385 134.459 27.7385C134.023 27.7385 133.682 27.948 133.437 28.3669C133.194 28.7857 133.073 29.5253 133.073 30.5856C133.073 31.6458 133.194 32.3854 133.437 32.8043C133.682 33.2232 134.023 33.4326 134.459 33.4326ZM144.953 37.5559C143.778 37.5559 142.874 37.3072 142.24 36.8098C141.607 36.3124 141.29 35.6775 141.29 34.9052C141.29 34.3947 141.402 33.8907 141.627 33.3933C141.719 33.1577 141.838 32.9417 141.983 32.7454C142.524 32.6145 143.112 32.4967 143.745 32.392C145.171 32.1563 146.432 32.0124 147.527 31.96V31.371C147.527 29.918 147.349 28.9166 146.993 28.3669C146.636 27.8171 146.088 27.5422 145.349 27.5422C145.072 27.5422 144.834 27.5749 144.636 27.6404L144.359 27.7385V30.6837L144.102 30.7426C143.89 30.7688 143.712 30.7819 143.567 30.7819C143.118 30.7819 142.758 30.6471 142.486 30.3774C142.217 30.1104 142.082 29.7544 142.082 29.3093C142.082 28.7072 142.388 28.1967 143.001 27.7778C143.616 27.3589 144.531 27.1495 145.745 27.1495C146.775 27.1495 147.662 27.3288 148.406 27.6875C149.154 28.0488 149.721 28.5462 150.109 29.1797C150.5 29.8159 150.695 30.5463 150.695 31.371V36.6723L151.883 36.9668V37.2614H150.101C149.309 37.2614 148.696 37.0192 148.26 36.5349C148.075 36.3385 147.93 36.0898 147.824 35.7888C147.639 36.116 147.422 36.4105 147.171 36.6723C146.577 37.2614 145.838 37.5559 144.953 37.5559ZM145.745 36.8687C146.234 36.8687 146.676 36.6069 147.072 36.0833C147.217 35.8869 147.369 35.6251 147.527 35.2979V32.4509C146.92 32.4509 146.339 32.4836 145.785 32.549C145.376 32.6014 145.098 32.6341 144.953 32.6472C144.887 32.7912 144.821 32.9875 144.755 33.2363C144.623 33.7337 144.557 34.2245 144.557 34.7089C144.557 35.4419 144.669 35.9851 144.894 36.3385C145.118 36.692 145.402 36.8687 145.745 36.8687ZM153.068 37.2614V36.9668L154.256 36.6723V28.0331L153.068 27.7385V27.444H154.85C155.629 27.444 156.242 27.6927 156.691 28.1901C156.863 28.3865 157.008 28.6286 157.127 28.9166C157.312 28.5763 157.529 28.2818 157.78 28.0331C158.374 27.444 159.113 27.1495 159.998 27.1495C160.737 27.1495 161.401 27.3027 161.99 27.609C162.576 27.9179 163.034 28.321 163.364 28.8185C163.694 29.3159 163.859 29.8395 163.859 30.3892V36.6723L165.047 36.9668V37.2614H162.473C161.285 37.2614 160.691 36.6723 160.691 35.4942V30.3892C160.691 29.5646 160.543 28.9323 160.247 28.4925C159.949 28.0553 159.602 27.8367 159.206 27.8367C158.704 27.8367 158.255 28.0985 157.859 28.6221C157.688 28.8446 157.543 29.1064 157.424 29.4075V36.6723L158.612 36.9668V37.2614H153.068ZM171.582 37.5559C169.892 37.5559 168.578 37.0938 167.641 36.1697C166.704 35.2482 166.235 33.9758 166.235 32.3527C166.235 31.2924 166.44 30.3696 166.849 29.5842C167.258 28.7988 167.83 28.1967 168.564 27.7778C169.295 27.3589 170.136 27.1495 171.086 27.1495C172.037 27.1495 172.873 27.3262 173.593 27.6796C174.311 28.0331 174.866 28.5069 175.257 29.1012C175.645 29.6981 175.839 30.3565 175.839 31.0764C175.839 31.4037 175.806 31.6851 175.74 31.9207L175.641 32.2545C175.073 32.3723 174.459 32.4705 173.799 32.549C172.413 32.7454 171.014 32.8436 169.601 32.8436C169.601 34.362 169.813 35.4445 170.235 36.0911C170.657 36.7404 171.238 37.065 171.978 37.065C172.492 37.065 172.972 36.9433 173.415 36.6998C173.856 36.459 174.206 36.1383 174.465 35.7377C174.721 35.3398 174.849 34.9314 174.849 34.5125H175.344C175.344 35.0361 175.185 35.5335 174.868 36.0047C174.552 36.476 174.109 36.8516 173.542 37.1318C172.974 37.4145 172.321 37.5559 171.582 37.5559ZM169.601 32.3527C170.446 32.3527 171.133 32.32 171.661 32.2545C171.885 32.2414 172.123 32.2087 172.374 32.1563C172.387 32.0909 172.42 31.9469 172.473 31.7244C172.539 31.3971 172.572 31.0503 172.572 30.6837C172.572 29.5973 172.426 28.8014 172.136 28.2962C171.846 27.7935 171.496 27.5422 171.086 27.5422C170.096 27.5422 169.601 29.1457 169.601 32.3527ZM181.977 37.5559C181.159 37.5559 180.426 37.3792 179.779 37.0257C179.462 36.8556 179.205 36.6723 179.007 36.476C178.796 36.7639 178.565 36.9865 178.314 37.1436C178.195 37.2221 178.063 37.2941 177.918 37.3595H177.423V34.0216H178.215C178.386 34.5714 178.637 35.0819 178.967 35.5531C179.667 36.5611 180.538 37.065 181.581 37.065C182.135 37.065 182.554 36.9302 182.836 36.6605C183.122 36.3935 183.264 36.0047 183.264 35.4942C183.264 35.0623 183.069 34.6984 182.678 34.4026C182.29 34.1093 181.68 33.7468 180.848 33.3148C180.136 32.9614 179.557 32.6433 179.114 32.3605C178.673 32.0804 178.297 31.727 177.985 31.3003C177.676 30.8762 177.522 30.3761 177.522 29.8002C177.522 29.0148 177.861 28.376 178.54 27.8838C179.221 27.3943 180.268 27.1495 181.68 27.1495C182.38 27.1495 183.027 27.3328 183.621 27.6993C183.911 27.8694 184.162 28.0462 184.373 28.2294C184.545 27.9938 184.776 27.7713 185.066 27.5618C185.29 27.4309 185.422 27.3589 185.462 27.3459H185.957V30.6837H185.165C184.967 30.1209 184.723 29.6169 184.432 29.1719C183.772 28.1509 182.987 27.6404 182.076 27.6404C181.72 27.6404 181.416 27.7713 181.165 28.0331C180.914 28.2949 180.789 28.6221 180.789 29.0148C180.789 29.5122 181 29.9285 181.423 30.2636C181.845 30.596 182.485 30.9783 183.343 31.4102C184.043 31.7637 184.6 32.0739 185.015 32.3409C185.432 32.6106 185.788 32.9417 186.084 33.3344C186.382 33.7271 186.531 34.1853 186.531 34.7089C186.531 36.6069 185.013 37.5559 181.977 37.5559ZM188.016 37.2614V36.9668L189.204 36.6723V24.1061L188.016 23.8116V23.5171H190.591C191.779 23.5171 192.373 24.1061 192.373 25.2842V28.4258C192.571 28.164 192.775 27.9545 192.986 27.7974C193.554 27.3655 194.207 27.1495 194.947 27.1495C195.686 27.1495 196.349 27.3027 196.935 27.609C197.523 27.9179 197.983 28.321 198.313 28.8185C198.643 29.3159 198.808 29.8395 198.808 30.3892V36.6723L199.996 36.9668V37.2614H197.422C196.234 37.2614 195.64 36.6723 195.64 35.4942V30.3892C195.64 29.5646 195.491 28.9323 195.192 28.4925C194.897 28.0553 194.551 27.8367 194.155 27.8367C193.653 27.8367 193.204 28.0985 192.808 28.6221C192.637 28.8446 192.491 29.1064 192.373 29.4075V36.6723L193.561 36.9668V37.2614H188.016Z" fill="#FFA35B"/>
</g>
</g>
</g>
</g>
<g clip-path="url(#clip6_325_919)">
<g clip-path="url(#clip7_325_919)">
<g clip-path="url(#clip8_325_919)">
<g clip-path="url(#clip9_325_919)">
<path d="M36.3883 47.1692C32.2078 47.861 27.7708 46.6272 24.4855 43.9918C21.3625 41.4865 19.4155 37.5601 19.555 33.5553C19.6902 29.6772 21.6852 25.803 25.0084 23.6807C28.4053 21.5116 33.0592 21.5219 36.4352 23.7302C39.5938 25.7964 41.3397 29.8212 40.2729 33.4834C39.7213 35.3775 38.5018 37.1229 36.7664 38.1243C34.96 39.1668 32.6753 39.3797 30.7175 38.6395C28.9573 37.9738 27.4566 36.5468 26.9015 34.7391C26.3321 32.8853 26.8074 30.7381 28.1903 29.3511C29.5275 28.0097 31.6759 27.5292 33.4137 28.365C35.0635 29.1582 36.0803 31.1107 35.4694 32.8804C35.1402 33.8341 34.3619 34.6515 33.3687 34.9227C32.3267 35.2073 31.132 34.8378 30.487 33.9651C29.856 33.1116 29.9079 31.8513 30.7183 31.1268C31.1266 30.7619 31.7251 30.5779 32.2616 30.737C32.4204 30.7838 33.1266 30.9544 33.0588 31.2014C33.0925 30.9509 32.5394 30.8864 32.379 30.8426C31.8793 30.7059 31.3203 30.8441 30.9383 31.1898C30.2647 31.7991 30.1655 32.9026 30.7071 33.6252C31.256 34.3573 32.2961 34.6703 33.1661 34.3823C34.052 34.0884 34.6672 33.2249 34.8105 32.3295C35.0995 30.523 33.3339 28.965 31.5864 29.038C29.7371 29.1152 28.2751 30.7178 28.0571 32.4839C27.648 35.7954 31.4659 38.0491 34.4355 37.2993C37.746 36.463 39.4172 32.5469 38.606 29.4383C37.6996 25.9639 33.9997 23.8055 30.5188 23.852C26.7284 23.9023 23.4376 26.6292 22.014 30.0021C20.4498 33.7085 21.1641 38.134 23.6414 41.2814C26.1535 44.4731 30.1996 46.3184 34.2368 46.53C36.4704 46.6472 38.7881 46.3238 40.8237 45.3754C42.7432 44.4811 44.2741 42.9715 45.4629 41.2522C47.9045 37.7206 48.8183 33.2095 47.8394 29.028C46.1582 21.85 38.8783 16.6006 31.4733 17.2306C24.2015 17.849 17.9997 24.0149 17.3787 31.2229C17.0231 35.3483 18.4545 39.5813 21.2246 42.6762C23.9664 45.7399 27.9742 47.6217 32.0985 47.8053C34.4685 47.9109 36.8644 47.4688 39.0337 46.515C38.0761 46.8392 37.0995 47.1661 36.0811 47.2211C36.2771 47.2103 36.4615 47.1266 36.6591 47.1281C35.9657 47.1227 35.3168 47.4262 34.6285 47.4623C35.029 47.4412 35.4431 47.3582 35.8274 47.2449C35.9579 47.2061 36.3922 47.0229 36.5072 47.1519C36.427 47.0616 35.9812 47.2218 35.8824 47.2453C35.5237 47.3302 35.1258 47.4189 34.7582 47.4412C34.9232 47.4312 36.5154 47.1681 36.513 47.1511C36.5161 47.1761 34.955 47.3843 34.7261 47.4465C35.0027 47.3713 35.3091 47.3524 35.5919 47.3056C35.705 47.2871 36.4301 47.0786 36.5115 47.1511C36.4991 47.14 36.4026 47.1669 36.3883 47.1692C37.3529 47.0194 32.2449 47.8549 36.3883 47.1692Z" fill="#FFA35B"/>
</g>
</g>
<path d="M6.15391 23.1515C6.01498 23.5614 5.82005 23.8484 5.56973 24.0125C5.31785 24.1738 5.05502 24.2092 4.78155 24.118C4.60038 24.0575 4.43455 23.9588 4.28405 23.8217C4.21052 23.7602 4.14825 23.6926 4.09631 23.6191C4.11258 23.4159 4.14074 23.1974 4.18079 22.9632C4.26496 22.4373 4.3629 21.9802 4.47491 21.5915L4.26527 21.5217C3.74962 21.3498 3.37321 21.2939 3.13603 21.3538C2.89886 21.4137 2.73647 21.5726 2.64917 21.8301C2.616 21.9278 2.59879 22.0141 2.59723 22.0898L2.60005 22.1984L3.64512 22.5465L3.63479 22.6442C3.61946 22.7218 3.60319 22.7857 3.58629 22.8366C3.53341 22.9926 3.44392 23.1019 3.31751 23.1639C3.1886 23.2275 3.04561 23.2328 2.88791 23.1804C2.67326 23.109 2.52871 22.9411 2.45392 22.6774C2.37726 22.4128 2.41043 22.069 2.55405 21.6455C2.67577 21.2865 2.84504 20.9973 3.06157 20.7783C3.27746 20.5614 3.52183 20.4224 3.79437 20.3613C4.0644 20.3014 4.346 20.3203 4.63918 20.4181L6.52 21.0451L6.76719 20.6647L6.87044 20.6992L6.65892 21.3228C6.56568 21.598 6.40767 21.7832 6.18489 21.8782C6.09227 21.9188 5.98651 21.9402 5.86761 21.9418C5.96179 22.0448 6.04033 22.1559 6.10322 22.2744C6.24183 22.5508 6.25873 22.8431 6.15391 23.1515ZM6.00529 22.7956C6.06286 22.6259 6.02156 22.4404 5.88169 22.2396C5.83006 22.1658 5.75559 22.0814 5.6586 21.9861L4.64888 21.6495C4.57692 21.8623 4.51872 22.0687 4.47491 22.2694C4.44644 22.4183 4.42548 22.5189 4.41234 22.571C4.45551 22.6113 4.51747 22.6582 4.59788 22.7112C4.75965 22.8152 4.92642 22.8955 5.09758 22.9526C5.35728 23.0392 5.56348 23.0646 5.71617 23.0283C5.86855 22.9923 5.96492 22.9148 6.00529 22.7956Z" fill="#FFA35B"/>
<path d="M9.36456 16.5019C9.20092 16.7551 8.9991 16.9471 8.7588 17.0784C8.64083 17.1426 8.53163 17.1857 8.43119 17.2074C8.47938 17.3312 8.50285 17.4476 8.50128 17.5565C8.50222 17.6083 8.49847 17.6635 8.49064 17.7222L8.39146 17.8754L7.33982 17.2071L7.49971 16.9601C7.70653 17.0182 7.91711 17.0433 8.13175 17.0355C8.58827 17.02 8.92119 16.85 9.13083 16.5258C9.24191 16.3542 9.28383 16.1975 9.25693 16.0557C9.23002 15.9139 9.13646 15.792 8.97563 15.6899C8.83921 15.6033 8.68558 15.5912 8.51442 15.6536C8.34171 15.715 8.10485 15.8311 7.80447 16.002C7.54914 16.1528 7.33262 16.2682 7.15521 16.3486C6.97748 16.429 6.791 16.4752 6.59512 16.4879C6.39894 16.4978 6.20995 16.4448 6.02816 16.3294C5.78003 16.1714 5.64736 15.9381 5.63016 15.6288C5.61013 15.3201 5.74186 14.9465 6.02534 14.5081C6.16552 14.2915 6.35263 14.128 6.58668 14.0173C6.69901 13.9617 6.80539 13.9192 6.90583 13.8901C6.86609 13.7914 6.842 13.676 6.83386 13.5435C6.83793 13.4457 6.842 13.3896 6.84638 13.3753L6.94557 13.222L7.9969 13.8904L7.83732 14.1373C7.62142 14.0858 7.41366 14.0601 7.21372 14.0601C6.75971 14.0601 6.44149 14.2016 6.25908 14.4842C6.18742 14.5953 6.16834 14.7163 6.2015 14.8475C6.23436 14.976 6.31289 15.0796 6.43711 15.1587C6.59262 15.2577 6.76503 15.2754 6.95402 15.2118C7.14582 15.1479 7.39551 15.0266 7.70309 14.8482C7.9534 14.7014 8.16273 14.5913 8.33138 14.5174C8.49941 14.4408 8.67494 14.3958 8.85861 14.3831C9.04197 14.37 9.21594 14.416 9.38021 14.5202C9.97815 14.9003 9.97283 15.5608 9.36456 16.5019Z" fill="#FFA35B"/>
<path d="M13.8111 11.2971C13.5777 11.5199 13.3355 11.6713 13.0842 11.751C12.8302 11.8308 12.5861 11.8407 12.3524 11.7808C12.1186 11.7212 11.9115 11.5984 11.7316 11.4131L10.1762 9.81155L9.80385 10.1671L9.6765 10.0359L10.0488 9.68L9.79384 9.41751C9.4872 9.10166 9.4922 8.79232 9.80948 8.4895L10.1796 8.13611L10.8946 8.87268L11.6374 8.16341L11.7648 8.29465L11.0223 9.00392L12.5777 10.6058C12.8902 10.9276 13.1377 11.1159 13.3202 11.1702C13.5026 11.2245 13.659 11.1898 13.7892 11.0653C13.9162 10.944 13.9688 10.7768 13.9463 10.5636C13.9225 10.3492 13.8089 10.1373 13.6058 9.92821L13.7382 9.80193C13.9888 10.0601 14.1174 10.3232 14.124 10.5909C14.1306 10.8562 14.0264 11.0914 13.8111 11.2971Z" fill="#FFA35B"/>
<path d="M17.0098 8.63133L16.9535 8.53887L17.2736 8.21682L15.5993 5.47437L15.1628 5.60623L15.1064 5.51377L15.674 5.1731C15.9209 5.02479 16.1634 4.98663 16.4009 5.05799C16.4948 5.0884 16.5883 5.13804 16.6816 5.20723C16.6897 5.07723 16.7166 4.94661 16.7626 4.81567C16.8712 4.52433 17.0552 4.30063 17.3145 4.14519C17.5367 4.01177 17.7348 3.96275 17.909 3.9975C18.0815 4.03349 18.226 4.14674 18.3418 4.33693C18.4278 4.47779 18.4544 4.6171 18.4222 4.75455C18.3868 4.89138 18.298 5.00245 18.1559 5.08778C18.0974 5.12284 18.0364 5.15448 17.9735 5.18272L17.8859 5.2063L17.3537 4.33445C17.1387 4.46352 16.9938 4.66364 16.919 4.93482C16.8871 5.06947 16.8718 5.19327 16.8727 5.30558L18.2808 7.61211L18.7144 7.4818L18.7711 7.57426L17.0098 8.63133Z" fill="#FFA35B"/>
<path d="M24.6392 5.19982C24.0591 5.38102 23.5526 5.36023 23.1204 5.13715C22.6861 4.91438 22.3776 4.51537 22.1946 3.93983C22.0119 3.3646 22.0338 2.86196 22.2609 2.43286C22.4856 2.00221 22.888 1.69629 23.4684 1.51509C24.0485 1.3339 24.5554 1.35562 24.9881 1.58087C25.4224 1.80364 25.7309 2.20265 25.914 2.77788C26.0967 3.35312 26.0748 3.85575 25.8473 4.28485C25.622 4.71363 25.2193 5.01863 24.6392 5.19982ZM24.5951 5.06144C24.7813 5.00342 24.8977 4.8244 24.944 4.52499C24.9903 4.22559 24.9155 3.76763 24.7197 3.15113C24.5238 2.53463 24.3201 2.1167 24.1092 1.89765C23.898 1.67861 23.6996 1.59825 23.5131 1.65627C23.327 1.71429 23.2106 1.89331 23.1646 2.19272C23.1183 2.49213 23.193 2.95008 23.3889 3.56689C23.5848 4.18339 23.7885 4.60132 23.9994 4.82037C24.2106 5.03942 24.409 5.11977 24.5951 5.06144Z" fill="#FFA35B"/>
<path d="M31.5298 5.50635C31.0942 5.52496 30.7378 5.50076 30.4603 5.43436C30.1831 5.36797 29.9816 5.27644 29.8561 5.16009C29.7306 5.04374 29.6649 4.91777 29.659 4.78187C29.6518 4.61743 29.6959 4.48246 29.7913 4.37759C29.8886 4.27459 30.0204 4.21936 30.1862 4.21253C30.2256 4.21098 30.2976 4.21501 30.4018 4.22494L30.4803 4.23704L30.5244 5.25534C30.5854 5.27333 30.6799 5.29412 30.8076 5.31739C31.0357 5.35525 31.2503 5.36983 31.4515 5.36114C32.0489 5.3357 32.4822 5.23393 32.751 5.05553C33.0195 4.87526 33.1487 4.66149 33.1377 4.41483C33.1243 4.10022 32.8239 3.95532 32.2369 3.98014L30.8426 4.0394C30.4734 4.05523 30.1881 3.991 29.9866 3.84704C29.7851 3.70525 29.6793 3.51785 29.6693 3.28546C29.6593 3.05307 29.7653 2.84146 29.9878 2.65065C30.076 2.57898 30.1909 2.5132 30.3317 2.45363C30.1465 2.35031 30.01 2.22403 29.9224 2.07511C29.8348 1.92432 29.7863 1.74188 29.7772 1.52811C29.7619 1.17006 29.8861 0.874373 30.1502 0.640432C30.4146 0.408662 30.811 0.281453 31.3405 0.259114C31.5708 0.249185 31.7832 0.262837 31.9781 0.300069C32.1731 0.339163 32.3314 0.395321 32.4528 0.468544C32.4885 0.3826 32.5373 0.307205 32.5989 0.24267C32.7378 0.0903288 32.9153 0.00965948 33.1312 0.000661746C33.2992 -0.00647439 33.4415 0.0440991 33.5586 0.152692C33.6756 0.263147 33.7382 0.410834 33.746 0.596064C33.7519 0.735994 33.7197 0.851723 33.6487 0.943252C33.5758 1.03292 33.48 1.08039 33.3618 1.08535C33.3079 1.08753 33.2463 1.08504 33.1775 1.0776L33.1052 1.05898L33.0673 0.185891C32.9387 0.191476 32.8211 0.257252 32.7144 0.383221C32.6728 0.428209 32.6358 0.490573 32.6039 0.570311C32.858 0.773846 32.9925 1.0475 33.0073 1.39097C33.0229 1.75088 32.8984 2.0478 32.6343 2.28143C32.3699 2.5132 31.9734 2.64041 31.444 2.66275C31.0914 2.67764 30.7704 2.63048 30.4809 2.52127L30.3379 2.59853C30.2894 2.63141 30.2535 2.66182 30.2297 2.68974C30.2081 2.71736 30.1981 2.75087 30.1996 2.78996C30.2031 2.87218 30.2485 2.9333 30.3354 2.97271C30.4224 3.01242 30.5767 3.02731 30.7985 3.01801L32.1928 2.95874C32.5601 2.94323 32.8517 3.03693 33.0683 3.23985C33.287 3.4409 33.4043 3.73162 33.4209 4.11201C33.4375 4.4986 33.2882 4.82035 32.9731 5.07694C32.6581 5.3357 32.1768 5.47873 31.5298 5.50635ZM31.4378 2.51786C31.5995 2.51103 31.7228 2.42757 31.8073 2.26716C31.8899 2.10923 31.9224 1.83248 31.9055 1.43751C31.8887 1.04471 31.832 0.772916 31.7363 0.622436C31.6383 0.470095 31.5082 0.397183 31.3467 0.404319C31.1849 0.411145 31.0617 0.494606 30.9772 0.654704C30.8946 0.81263 30.8617 1.08815 30.8786 1.48125C30.8958 1.87622 30.9522 2.14895 31.0482 2.29943C31.1461 2.45177 31.2763 2.52468 31.4378 2.51786Z" fill="#FFA35B"/>
<path d="M38.0892 4.50854C37.6618 4.4229 37.3504 4.26715 37.1549 4.04128C36.9618 3.81354 36.8939 3.55943 36.9509 3.27895C36.9887 3.09341 37.0666 2.9178 37.1852 2.75243C37.2375 2.67269 37.2972 2.60257 37.3645 2.54238C37.5698 2.53307 37.7922 2.53338 38.0316 2.54362C38.5682 2.56068 39.0379 2.60009 39.4406 2.66183L39.4844 2.44713C39.592 1.91843 39.6011 1.54115 39.5116 1.31496C39.4221 1.08909 39.2428 0.949157 38.9741 0.895481C38.8724 0.875003 38.7835 0.868798 38.7078 0.876865L38.5998 0.892999L38.3814 1.96466L38.2826 1.96683C38.2031 1.96156 38.1371 1.95349 38.0842 1.94294C37.9215 1.91036 37.801 1.8359 37.7228 1.71955C37.6433 1.60072 37.6198 1.46048 37.653 1.29883C37.6978 1.07885 37.8476 0.915648 38.102 0.809227C38.357 0.700634 38.7056 0.690705 39.1474 0.778821C39.5219 0.853905 39.832 0.984217 40.0779 1.17007C40.322 1.35561 40.4916 1.57838 40.5867 1.839C40.6803 2.09714 40.6965 2.37669 40.6352 2.67765L40.2425 4.60596L40.654 4.80174L40.6324 4.90754L39.9822 4.77754C39.6953 4.72014 39.4903 4.58766 39.3671 4.38009C39.3148 4.29383 39.2804 4.19269 39.2638 4.07603C39.1724 4.18152 39.0714 4.27273 38.9603 4.34906C38.7009 4.51971 38.4105 4.57307 38.0892 4.50854ZM38.4265 4.31803C38.6036 4.3534 38.7838 4.2898 38.9675 4.12691C39.0348 4.06672 39.1102 3.98326 39.1934 3.8759L39.4043 2.84054C39.1824 2.79618 38.9684 2.76484 38.7625 2.74684C38.6098 2.73722 38.5066 2.72916 38.4528 2.72264C38.4177 2.77011 38.3786 2.83713 38.3357 2.92276C38.2519 3.09496 38.1921 3.26902 38.1565 3.44463C38.1023 3.71115 38.1026 3.91686 38.1577 4.06237C38.2128 4.20789 38.3026 4.2929 38.4265 4.31803Z" fill="#FFA35B"/>
<path d="M43.5972 5.99344L43.646 5.89663L44.0915 5.99313L45.5362 3.12533L45.1907 2.82996L45.2392 2.73315L45.8328 3.02698C46.0909 3.15481 46.253 3.33755 46.319 3.57522C46.3431 3.67016 46.3506 3.77503 46.3416 3.89014C46.4605 3.80637 46.5819 3.74462 46.7064 3.70491C47.0027 3.60531 47.2984 3.62858 47.5938 3.77503C47.8391 3.89634 48.0331 4.05706 48.1761 4.25656C48.32 4.45451 48.4051 4.66332 48.4314 4.88361C48.4574 5.10359 48.4245 5.30496 48.3328 5.48739L47.2821 7.57332L47.6276 7.86869L47.5788 7.96549L46.7233 7.54167C46.3275 7.34558 46.2283 7.05238 46.4251 6.66206L47.2793 4.96552C47.4176 4.69094 47.4743 4.45669 47.4492 4.26246C47.4242 4.06823 47.3457 3.93854 47.2136 3.87307C47.0465 3.79023 46.8541 3.80326 46.6369 3.91217C46.5421 3.95747 46.4498 4.02076 46.3597 4.10267L45.1447 6.51469L45.4877 6.80882L45.4389 6.90562L43.5972 5.99344Z" fill="#FFA35B"/>
<path d="M51.5831 11.1786C51.111 10.7694 50.8569 10.3226 50.8206 9.83734C50.7846 9.3524 50.9667 8.88265 51.3672 8.42842C51.6282 8.13212 51.9136 7.92424 52.2233 7.80448C52.5315 7.68316 52.8391 7.65307 53.1464 7.71419C53.4549 7.77376 53.7424 7.91865 54.0081 8.14918C54.274 8.3794 54.4633 8.63103 54.576 8.90344C54.6902 9.17741 54.729 9.44486 54.6924 9.70548C54.6526 9.96642 54.5447 10.1969 54.3685 10.3968C54.2878 10.4883 54.209 10.5593 54.1314 10.6099L54.0234 10.6803C53.8354 10.5748 53.6392 10.4529 53.4358 10.3148C52.9987 10.0347 52.5832 9.7241 52.1892 9.38249C51.815 9.80725 51.6066 10.1613 51.5641 10.4445C51.5243 10.7275 51.6079 10.958 51.8141 11.1367C51.958 11.2615 52.121 11.344 52.3034 11.3843C52.4871 11.4231 52.6639 11.4178 52.8341 11.3685C53.0043 11.3192 53.1407 11.2363 53.2434 11.12L53.3817 11.2401C53.2534 11.3859 53.0872 11.4867 52.8835 11.5426C52.6783 11.5972 52.4611 11.595 52.2321 11.5357C52.0059 11.4765 51.7897 11.3573 51.5831 11.1786ZM52.3103 9.24536C52.5465 9.44982 52.7462 9.60651 52.9095 9.71541C52.9749 9.7666 53.0494 9.81469 53.1335 9.85999C53.1545 9.84541 53.1996 9.81314 53.2681 9.7635C53.3676 9.68842 53.4621 9.59937 53.5525 9.49729C53.8203 9.19323 53.9755 8.93571 54.0184 8.72411C54.06 8.51406 54.0237 8.35954 53.9098 8.26057C53.6329 8.02073 53.0997 8.34899 52.3103 9.24536Z" fill="#FFA35B"/>
<path d="M55.9046 16.0868C55.7306 15.8408 55.628 15.5826 55.5967 15.3124C55.5814 15.1796 55.5826 15.0632 55.6005 14.9627C55.4668 14.9602 55.3492 14.9376 55.2481 14.8948C55.1993 14.8758 55.1493 14.8516 55.0976 14.8222L54.9922 14.6729L56.0147 13.9618L56.1846 14.2019C56.052 14.3695 55.9487 14.5535 55.8745 14.7533C55.7159 15.178 55.7481 15.5479 55.9709 15.8631C56.0889 16.03 56.219 16.1281 56.3617 16.1572C56.5041 16.1864 56.6537 16.1467 56.8098 16.0381C56.9425 15.9459 57.0119 15.8094 57.0188 15.6289C57.0273 15.447 57.0085 15.1858 56.9631 14.8451C56.9193 14.5538 56.8937 14.3111 56.8861 14.1179C56.8786 13.9242 56.9062 13.7356 56.9684 13.5513C57.0338 13.3676 57.1549 13.2144 57.3317 13.0912C57.5729 12.9233 57.8414 12.8901 58.1365 12.9919C58.4322 13.0906 58.7307 13.3534 59.032 13.7797C59.1809 13.9903 59.2626 14.224 59.277 14.4809C59.2864 14.6053 59.2854 14.7188 59.2748 14.8218C59.3821 14.8228 59.4988 14.8445 59.6252 14.8873C59.715 14.928 59.7657 14.9531 59.7776 14.9627L59.8831 15.1119L58.8605 15.8231L58.6906 15.5826C58.8205 15.4042 58.9234 15.2233 58.9991 15.04C59.1712 14.6236 59.1603 14.2779 58.9656 14.0034C58.8893 13.8954 58.7835 13.8321 58.6484 13.8129C58.516 13.7942 58.3896 13.8268 58.2688 13.9106C58.1174 14.0158 58.0357 14.1672 58.0229 14.3645C58.0097 14.5646 58.0282 14.8398 58.078 15.1901C58.1199 15.4753 58.1434 15.7092 58.1484 15.892C58.1562 16.075 58.1315 16.2534 58.0739 16.4265C58.0163 16.5997 57.9077 16.7421 57.7479 16.8532C57.1665 17.2574 56.552 17.0021 55.9046 16.0868Z" fill="#FFA35B"/>
<path d="M58.45 20.3024L58.5523 20.2649L58.811 20.6375L63.2238 19.016L63.1725 18.5671L63.2748 18.5295L63.6068 19.4188C63.7604 19.8299 63.6309 20.1116 63.2182 20.263L62.1143 20.6685C62.231 20.7023 62.3314 20.7458 62.4153 20.7985C62.6399 20.9378 62.8004 21.1358 62.8962 21.3924C62.9913 21.6471 63.0223 21.8959 62.9891 22.1389C62.9578 22.3809 62.8759 22.5912 62.7432 22.7693C62.6105 22.9477 62.4478 23.0722 62.2551 23.1432L60.0501 23.9533L60.0986 24.4032L59.9963 24.4407L59.6643 23.5515C59.5107 23.1404 59.6402 22.8587 60.0529 22.7073L61.8461 22.0483C62.1362 21.9415 62.3389 21.8091 62.4547 21.6502C62.5702 21.4913 62.6024 21.3433 62.5511 21.2065C62.486 21.0328 62.337 20.9121 62.1033 20.8438C62.0032 20.8125 61.8918 20.7964 61.7698 20.7951L59.22 21.7321L59.2675 22.1792L59.1652 22.2168L58.45 20.3024Z" fill="#FFA35B"/>
<path d="M2.47769 41.8187C2.34127 41.4148 2.32344 41.0741 2.42481 40.7973C2.52431 40.5212 2.70861 40.3382 2.97864 40.2485C3.15793 40.1889 3.34723 40.1694 3.54686 40.1898C3.6401 40.1936 3.7299 40.2094 3.81563 40.2373C3.92358 40.4077 4.0331 40.596 4.14449 40.8023C4.39293 41.2649 4.58942 41.6816 4.73461 42.0524L4.94143 41.9838C5.44926 41.815 5.77905 41.6369 5.93049 41.4498C6.08256 41.2646 6.11541 41.0443 6.02874 40.7887C5.99651 40.6931 5.95709 40.6158 5.91109 40.5572L5.84319 40.4725L4.81252 40.815L4.76214 40.7341C4.72991 40.6646 4.70519 40.6044 4.68799 40.5535C4.63573 40.3993 4.64136 40.2597 4.70394 40.1343C4.76496 40.0099 4.87291 39.9218 5.02842 39.8703C5.23899 39.8002 5.45427 39.847 5.67392 40.0108C5.89076 40.1734 6.07004 40.4635 6.21116 40.8811C6.33069 41.2345 6.37074 41.5609 6.33194 41.8603C6.29251 42.1579 6.18425 42.411 6.00715 42.6199C5.83224 42.8277 5.60008 42.9798 5.31065 43.0759L3.4558 43.6924L3.49022 44.1336L3.38665 44.1681L3.17983 43.5559C3.08753 43.2826 3.10067 43.0427 3.21925 42.8361C3.26713 42.7508 3.33784 42.672 3.4314 42.5994C3.29404 42.5755 3.16544 42.5348 3.04529 42.4771C2.76994 42.3428 2.58095 42.1234 2.47769 41.8187ZM2.81218 42.0105C2.86881 42.1783 3.01181 42.3003 3.24116 42.3763C3.32658 42.4024 3.43547 42.4235 3.56813 42.4402L4.56345 42.1095C4.49274 41.9007 4.41389 41.7055 4.32597 41.5237C4.25994 41.3872 4.21708 41.295 4.19643 41.2475C4.13729 41.241 4.06094 41.2417 3.96707 41.2491C3.77809 41.26 3.59786 41.2938 3.42639 41.3506C3.17044 41.4356 2.99366 41.5376 2.89603 41.6571C2.79966 41.7738 2.7715 41.8917 2.81218 42.0105Z" fill="#FFA35B"/>
<path d="M6.09257 49.3195C5.93143 49.0697 5.84226 48.8109 5.82473 48.5435C5.81441 48.4132 5.82035 48.2981 5.84257 48.1988C5.71209 48.1913 5.59695 48.164 5.49745 48.1169C5.44957 48.0961 5.40107 48.0706 5.35195 48.0405L5.25464 47.8898L6.29345 47.2304L6.44959 47.4721C6.31191 47.6328 6.20177 47.8103 6.12011 48.0042C5.94582 48.4178 5.96116 48.7836 6.16579 49.1007C6.27562 49.2708 6.40015 49.3725 6.54033 49.4057C6.68019 49.4392 6.82881 49.406 6.9862 49.3061C7.12075 49.2208 7.19584 49.0886 7.21149 48.9102C7.22619 48.7346 7.21868 48.4765 7.18896 48.1361C7.15923 47.8494 7.14453 47.6108 7.14453 47.42C7.14453 47.2292 7.17957 47.0446 7.24903 46.8659C7.32037 46.6862 7.44522 46.5398 7.62357 46.4265C7.86857 46.2711 8.13421 46.2494 8.42083 46.3608C8.70744 46.4725 8.98998 46.7439 9.26846 47.1758C9.40613 47.3893 9.47685 47.6229 9.4806 47.8773C9.4853 47.999 9.47935 48.1103 9.46308 48.2109C9.57134 48.218 9.68617 48.2453 9.8082 48.2928C9.89394 48.3337 9.94244 48.3592 9.95339 48.3691L10.0526 48.5227L9.01376 49.182L8.85575 48.9375C8.99436 48.7666 9.10356 48.5919 9.18366 48.4141C9.37046 48.012 9.37359 47.6713 9.19336 47.3921C9.1239 47.2844 9.02377 47.2174 8.8933 47.1904C8.76188 47.1662 8.63485 47.1929 8.5125 47.2708C8.35856 47.3685 8.27126 47.5156 8.24998 47.7123C8.22965 47.9062 8.23653 48.1767 8.27095 48.5239C8.3013 48.8078 8.31538 49.0396 8.31319 49.2196C8.311 49.3995 8.27815 49.5742 8.21525 49.7436C8.15267 49.9102 8.03941 50.0458 7.87482 50.1504C7.28533 50.5242 6.69145 50.2475 6.09257 49.3195Z" fill="#FFA35B"/>
<path d="M11.1141 55.2266C10.8838 55.0066 10.7252 54.7752 10.6385 54.5322C10.5502 54.2877 10.5312 54.0494 10.5809 53.8167C10.631 53.5871 10.7452 53.3805 10.9242 53.1965L12.4561 51.6197L12.0906 51.2704L12.2161 51.1416L12.5816 51.4907L12.8344 51.2307C13.1354 50.9207 13.4423 50.9151 13.7549 51.2136L14.1204 51.563L13.4161 52.2881L14.147 52.9865L14.0218 53.1155L13.2906 52.4168L11.7583 53.9939C11.4486 54.3126 11.2696 54.562 11.2217 54.742C11.1738 54.9219 11.2148 55.0739 11.345 55.1984C11.4692 55.3169 11.6372 55.3603 11.8497 55.329C12.0606 55.2989 12.2668 55.1801 12.4683 54.9722L12.5985 55.0966C12.3506 55.3516 12.0941 55.4881 11.8287 55.5061C11.5646 55.5226 11.3265 55.4295 11.1141 55.2266Z" fill="#FFA35B"/>
<path d="M15.1443 58.2542L15.2006 58.1617L15.6302 58.2932L17.2814 55.5874L16.9628 55.2737L17.0195 55.1813L17.5764 55.5151C17.8217 55.6622 17.9669 55.8555 18.0126 56.0947C18.0282 56.1884 18.0273 56.2914 18.0101 56.4034C18.1271 56.351 18.2535 56.3147 18.389 56.2951C18.695 56.2548 18.9769 56.3122 19.2345 56.4667C19.4529 56.598 19.5868 56.7466 19.6356 56.9132C19.6828 57.0786 19.6487 57.2557 19.5339 57.444C19.4491 57.5834 19.339 57.6699 19.2038 57.7044C19.0671 57.7379 18.9284 57.7124 18.788 57.6284C18.7294 57.5933 18.6744 57.5542 18.6227 57.5111L18.5595 57.4478L19.0852 56.5865C18.8737 56.4596 18.6312 56.4261 18.3568 56.4853C18.2244 56.5191 18.109 56.5617 18.0098 56.6128L16.6215 58.8877L16.9381 59.2042L16.8818 59.2967L15.1443 58.2542Z" fill="#FFA35B"/>
<path d="M23.4915 62.2373C22.9192 62.0589 22.5215 61.758 22.299 61.3345C22.0763 60.9109 22.055 60.4154 22.2349 59.848C22.4142 59.2824 22.7174 58.8889 23.1445 58.6683C23.5716 58.4474 24.0713 58.4263 24.6439 58.6047C25.2143 58.7825 25.611 59.0832 25.8335 59.5067C26.0563 59.9302 26.0779 60.4248 25.8983 60.9904C25.7184 61.5579 25.4149 61.9522 24.9877 62.1731C24.5606 62.394 24.0619 62.4154 23.4915 62.2373ZM23.5356 62.099C23.7199 62.1564 23.9158 62.0772 24.1235 61.8613C24.3313 61.6453 24.5319 61.233 24.7249 60.6243C24.9173 60.0174 24.9909 59.5666 24.9449 59.2718C24.8998 58.9749 24.785 58.7977 24.6007 58.7403C24.4164 58.6829 24.2202 58.763 24.0118 58.9808C23.8041 59.1967 23.6038 59.6078 23.4114 60.2147C23.2183 60.8235 23.1445 61.2755 23.1905 61.5706C23.2362 61.8653 23.3513 62.0416 23.5356 62.099Z" fill="#FFA35B"/>
<path d="M31.2618 64.9957C30.8326 64.9777 30.4834 64.9249 30.2149 64.8377C29.9483 64.7502 29.7587 64.6444 29.6454 64.52C29.5325 64.3937 29.4787 64.2637 29.4843 64.13C29.4912 63.9674 29.5466 63.8399 29.6501 63.7475C29.754 63.6528 29.8876 63.6091 30.0516 63.6159C30.0888 63.6174 30.1579 63.6277 30.2593 63.6463L30.3397 63.6621L30.2969 64.668C30.3541 64.6891 30.4446 64.7164 30.5675 64.7502C30.7875 64.8089 30.9968 64.8424 31.1961 64.8508C31.7831 64.8753 32.2171 64.8101 32.4981 64.655C32.7769 64.5017 32.9214 64.3038 32.9318 64.0611C32.9452 63.7484 32.6624 63.5799 32.0835 63.5557L30.7083 63.4983C30.3473 63.4831 30.0735 63.3975 29.887 63.2411C29.6983 63.0847 29.6088 62.8914 29.6185 62.6612C29.6282 62.4328 29.7509 62.2349 29.9868 62.0677C30.081 62.0038 30.1986 61.9476 30.3397 61.9001C30.1661 61.7838 30.0428 61.6485 29.9705 61.4952C29.8982 61.3398 29.8663 61.157 29.8754 60.947C29.8904 60.5933 30.0375 60.3128 30.3163 60.1062C30.5954 59.8995 30.9949 59.8068 31.5159 59.8288C31.744 59.8384 31.9527 59.8697 32.1417 59.9228C32.3307 59.9762 32.4815 60.0432 32.5945 60.1242C32.6351 60.0453 32.688 59.9765 32.7528 59.9175C32.9042 59.7794 33.0866 59.7152 33.3004 59.7242C33.4643 59.731 33.5989 59.7925 33.704 59.9079C33.8113 60.0258 33.8611 60.1763 33.8532 60.3593C33.8473 60.4971 33.8054 60.6079 33.7268 60.691C33.6486 60.7742 33.5513 60.8136 33.4349 60.8086C33.3811 60.8064 33.321 60.7987 33.2553 60.7856L33.1815 60.7608L33.2181 59.8998C33.0935 59.8946 32.9728 59.9495 32.8557 60.064C32.8104 60.1052 32.7694 60.1632 32.7331 60.2383C32.9646 60.4602 33.0732 60.741 33.0588 61.0804C33.0438 61.4341 32.8967 61.7146 32.6176 61.9212C32.3385 62.1279 31.9377 62.2203 31.4152 62.1986C31.0688 62.184 30.7581 62.1114 30.483 61.9802L30.3338 62.045C30.285 62.0717 30.2484 62.0981 30.2243 62.1241C30.1983 62.1477 30.1845 62.1791 30.183 62.2181C30.1795 62.3004 30.2193 62.3649 30.3025 62.4117C30.3835 62.4583 30.5331 62.4862 30.7509 62.4952L32.1264 62.5529C32.4893 62.5681 32.7691 62.6839 32.9656 62.9001C33.1599 63.1164 33.2494 63.4108 33.2337 63.7831C33.2174 64.1679 33.0444 64.4729 32.7146 64.6981C32.3829 64.9234 31.8986 65.0223 31.2618 64.9957ZM31.4211 62.0534C31.581 62.0602 31.7087 61.9892 31.8044 61.8409C31.9002 61.6904 31.9562 61.4217 31.9727 61.0348C31.9893 60.646 31.9562 60.3736 31.8736 60.2179C31.7909 60.0618 31.6695 59.9805 31.5097 59.9737C31.352 59.9672 31.2252 60.0379 31.1298 60.1865C31.0341 60.3351 30.978 60.6035 30.9615 60.9926C30.9449 61.3792 30.978 61.6516 31.0607 61.8095C31.1433 61.9656 31.2637 62.0469 31.4211 62.0534Z" fill="#FFA35B"/>
<path d="M38.8865 63.0192C38.4653 63.1039 38.1224 63.0794 37.8577 62.9457C37.5933 62.8138 37.4331 62.61 37.3765 62.3335C37.3389 62.1498 37.3427 61.9612 37.3877 61.7673C37.4031 61.6761 37.4297 61.5898 37.4681 61.5082C37.6518 61.4229 37.8539 61.3382 38.0739 61.2541C38.5673 61.0667 39.0085 60.9243 39.3978 60.8272L39.3543 60.6153C39.2479 60.0946 39.1102 59.7484 38.9416 59.5765C38.7748 59.404 38.5583 59.3447 38.2917 59.3984C38.1919 59.4186 38.1099 59.4474 38.0457 59.4856L37.9525 59.5421L38.1687 60.5985L38.0814 60.6382C38.0079 60.6615 37.9444 60.6783 37.8915 60.6888C37.7307 60.7211 37.5917 60.6987 37.4741 60.6215C37.3571 60.5464 37.2823 60.4291 37.2497 60.2696C37.2056 60.0537 37.2788 59.8477 37.4697 59.6519C37.659 59.4583 37.9713 59.3177 38.4068 59.2302C38.7751 59.1561 39.1068 59.1567 39.4018 59.2318C39.6947 59.3072 39.935 59.4449 40.1218 59.6448C40.3086 59.8424 40.4322 60.0897 40.4929 60.3863L40.8818 62.287L41.3277 62.3075L41.3493 62.4136L40.7113 62.542C40.4266 62.5994 40.1878 62.5569 39.9957 62.4148C39.9162 62.3574 39.8458 62.278 39.7851 62.1768C39.7445 62.309 39.6878 62.4306 39.6149 62.5417C39.4466 62.7961 39.2038 62.9553 38.8865 63.0192ZM39.1196 62.7139C39.2945 62.6789 39.4341 62.5529 39.5379 62.3366C39.5742 62.2556 39.609 62.1511 39.6421 62.0226L39.4334 61.0028C39.2157 61.0465 39.0107 61.1005 38.8183 61.1641C38.6734 61.2122 38.5761 61.2433 38.526 61.2578C38.5123 61.3152 38.5035 61.3906 38.4991 61.4837C38.4866 61.6711 38.4982 61.8526 38.5342 62.0282C38.588 62.2904 38.6684 62.4772 38.7757 62.5876C38.8806 62.6969 38.9954 62.7387 39.1196 62.7139Z" fill="#FFA35B"/>
<path d="M45.2806 60.9957L45.2318 60.8989L45.5728 60.6088L44.1454 57.7807L43.708 57.8803L43.6592 57.7838L44.2412 57.4949C44.4974 57.3677 44.7396 57.3488 44.9683 57.4378C45.0566 57.4748 45.1439 57.5303 45.2302 57.6048C45.2359 57.4639 45.2584 57.3317 45.2984 57.2086C45.3967 56.9203 45.5897 56.7047 45.8776 56.5616C46.1207 56.441 46.3632 56.3829 46.6045 56.3876C46.8488 56.3929 47.0657 56.45 47.255 56.5585C47.4455 56.669 47.586 56.8145 47.6774 56.9948L48.7146 59.0494L49.1533 58.9526L49.2021 59.0494L48.3579 59.4682C47.9699 59.6609 47.6786 59.5647 47.4846 59.18L46.6411 57.5089C46.5043 57.2383 46.3516 57.055 46.1827 56.9594C46.0118 56.8648 45.8613 56.8496 45.7315 56.9141C45.5682 56.9951 45.4646 57.1536 45.4211 57.3894C45.4026 57.4906 45.3986 57.5998 45.4086 57.7168L46.6088 60.0947L47.0475 59.9975L47.0963 60.0943L45.2806 60.9957Z" fill="#FFA35B"/>
<path d="M54.1456 55.4686C53.68 55.8729 53.2062 56.0597 52.7241 56.0293C52.2419 55.9989 51.8032 55.76 51.408 55.3122C51.1508 55.0209 50.9828 54.7181 50.904 54.4035C50.8264 54.0904 50.837 53.7885 50.9359 53.4975C51.0379 53.2065 51.2191 52.9477 51.4803 52.7212C51.7428 52.4935 52.0157 52.3427 52.2985 52.2695C52.5817 52.1931 52.8499 52.1907 53.1024 52.2614C53.3552 52.3321 53.5692 52.4665 53.7441 52.6647C53.8236 52.7547 53.8824 52.84 53.9212 52.9213L53.975 53.0389C53.8474 53.2071 53.7028 53.3805 53.5407 53.5595C53.2059 53.943 52.8442 54.3039 52.455 54.6414C52.8242 55.0597 53.1462 55.3085 53.4206 55.3879C53.695 55.4643 53.9337 55.4143 54.1368 55.2381C54.2789 55.1146 54.3815 54.9669 54.4447 54.7944C54.5063 54.6235 54.5242 54.4516 54.4991 54.2794C54.4722 54.1084 54.4078 53.9648 54.3048 53.8484L54.4409 53.7305C54.568 53.8745 54.6462 54.0488 54.675 54.2536C54.7025 54.4596 54.6722 54.6694 54.5842 54.8825C54.4963 55.0957 54.3502 55.2908 54.1456 55.4686ZM52.3361 54.5068C52.5689 54.3048 52.7504 54.132 52.8808 53.989C52.9378 53.9316 52.9944 53.8658 53.0507 53.7919C53.0392 53.7693 53.0135 53.7215 52.9741 53.6492C52.9134 53.5431 52.8389 53.4398 52.7497 53.3389C52.4844 53.0383 52.2504 52.8543 52.0473 52.787C51.8445 52.7169 51.6868 52.7305 51.5745 52.8282C51.3026 53.0644 51.5567 53.6238 52.3361 54.5068Z" fill="#FFA35B"/>
<path d="M59.0936 49.8587C58.9221 50.1017 58.715 50.2822 58.4722 50.4001C58.3545 50.4591 58.245 50.4976 58.1439 50.5152C58.1868 50.6378 58.205 50.7535 58.199 50.8627C58.1978 50.9146 58.1924 50.9689 58.1834 51.025L58.0798 51.1721L57.0691 50.4709L57.235 50.2357C57.4374 50.3008 57.6446 50.3337 57.8567 50.335C58.3088 50.3368 58.6439 50.1836 58.8617 49.8749C58.9784 49.7095 59.0257 49.5562 59.0032 49.4153C58.9809 49.2745 58.8933 49.1507 58.7403 49.0446C58.6092 48.9537 58.4578 48.9354 58.2854 48.989C58.1161 49.0424 57.8783 49.1476 57.5723 49.3049C57.3163 49.4414 57.0995 49.546 56.9215 49.6186C56.7434 49.6912 56.5582 49.7296 56.3651 49.734C56.1705 49.7371 55.9862 49.6785 55.8126 49.5581C55.5744 49.393 55.4527 49.1578 55.4474 48.8525C55.4421 48.5475 55.5876 48.1848 55.8842 47.7647C56.0306 47.5572 56.2215 47.4033 56.4571 47.3027C56.5688 47.2522 56.6749 47.2149 56.775 47.1917C56.7406 47.0899 56.7221 46.9739 56.7196 46.8442C56.7253 46.7502 56.7306 46.6959 56.7353 46.6816L56.8407 46.5323L57.8514 47.2332L57.6837 47.4712C57.4712 47.4095 57.2669 47.3757 57.0707 47.3704C56.6248 47.3524 56.306 47.4793 56.1142 47.7511C56.0403 47.8556 56.0159 47.9732 56.0407 48.1032C56.0682 48.2329 56.1417 48.339 56.2606 48.4216C56.4105 48.5255 56.581 48.5494 56.7722 48.4939C56.9606 48.4386 57.2103 48.3291 57.521 48.165C57.7741 48.0288 57.9847 47.9276 58.1536 47.8612C58.3223 47.7948 58.4975 47.7579 58.6796 47.7511C58.8589 47.7449 59.0285 47.797 59.1884 47.9081C59.7619 48.3058 59.73 48.9558 59.0936 49.8587Z" fill="#FFA35B"/>
<path d="M61.9022 44.6627L61.7998 44.6251L61.8483 44.1821L57.4975 42.5901L57.2444 42.9584L57.1421 42.9208L57.4688 42.0431C57.6189 41.6394 57.8987 41.5122 58.3079 41.6621L59.3949 42.0599C59.3286 41.9587 59.2823 41.8628 59.2563 41.7719C59.1781 41.524 59.1859 41.2743 59.2792 41.0233C59.3733 40.7701 59.5101 40.5634 59.6894 40.403C59.8712 40.2414 60.0689 40.1359 60.282 40.0866C60.497 40.0378 60.7 40.0487 60.8909 40.1185L63.0649 40.914L63.318 40.5458L63.4203 40.583L63.0937 41.461C62.9435 41.8647 62.6647 41.9922 62.2576 41.8433L60.4898 41.1964C60.2035 41.0915 59.9657 41.0617 59.776 41.1064C59.5861 41.1533 59.466 41.2442 59.4156 41.3794C59.3524 41.5495 59.3862 41.7353 59.517 41.9367C59.5733 42.0232 59.6456 42.1055 59.7338 42.1837L62.2495 43.1045L62.5029 42.7362L62.6052 42.7735L61.9022 44.6627Z" fill="#FFA35B"/>
<path d="M0.794678 31.8865C0.794678 30.8102 1.67454 29.9374 2.76029 29.9374C3.84572 29.9374 4.72589 30.8098 4.72558 31.8865C4.72558 32.9628 3.84572 33.8356 2.76029 33.8356C1.67485 33.8356 0.794678 32.9631 0.794678 31.8865Z" fill="#FFA35B"/>
<path d="M60.825 31.8865C60.825 30.8102 61.7048 29.9374 62.7902 29.9374C63.8757 29.9374 64.7559 30.8098 64.7559 31.8865C64.7559 32.9628 63.876 33.8356 62.7902 33.8356C61.7048 33.8356 60.8246 32.9631 60.825 31.8865Z" fill="#FFA35B"/>
</g>
</g>
</g>
</g>
<defs>
<clipPath id="clip0_325_919">
<rect width="200" height="65" fill="white"/>
</clipPath>
<clipPath id="clip1_325_919">
<rect width="200" height="65" fill="white"/>
</clipPath>
<clipPath id="clip2_325_919">
<rect width="123.756" height="17.9657" fill="white" transform="translate(76.2437 23.5171)"/>
</clipPath>
<clipPath id="clip3_325_919">
<rect width="123.756" height="17.9657" fill="white" transform="translate(76.2437 23.5171)"/>
</clipPath>
<clipPath id="clip4_325_919">
<rect width="123.756" height="17.9657" fill="white" transform="translate(76.2437 23.5171)"/>
</clipPath>
<clipPath id="clip5_325_919">
<rect width="123.756" height="17.9657" fill="white" transform="translate(76.2437 23.5171)"/>
</clipPath>
<clipPath id="clip6_325_919">
<rect width="65.5507" height="65" fill="white"/>
</clipPath>
<clipPath id="clip7_325_919">
<rect width="65.5507" height="65" fill="white"/>
</clipPath>
<clipPath id="clip8_325_919">
<rect width="30.9005" height="30.6413" fill="white" transform="translate(17.3252 17.1793)"/>
</clipPath>
<clipPath id="clip9_325_919">
<rect width="30.9005" height="30.6413" fill="white" transform="translate(17.3252 17.1793)"/>
</clipPath>
</defs>
</svg>
